# xmcd
# 
# Track frame offsets:
#     150
#     13788
#     22789
#     35163
#     49038
#     63888
#     77613
#     92988
#     109263
#     122313
#     134463
#     147288
#     161088
#     175038
# 
# Disc length: 2592
# 
# Revision: 1
# Processed by: cddbd v1.5.2PL0 Copyright (c) Steve Scherf et al.
# Submitted via: BonkEnc v1.0.8
# 
DISCID=b20a1e0e
DTITLE=Various Artist - Divas Of Jazz
DYEAR=2002
DGENRE=Jazz
TTITLE0=Dinah Washinton/Stairway To The Stars
TTITLE1=Ella Fitzgerald/Lover Come Back
TTITLE2=Doris Day/Bewitched, Bothered And Bewildered
TTITLE3=Billie Holiday/My Man (Mon Homme)
TTITLE4=Peggy Lee/Why Don't You Do Right?
TTITLE5=Marilyn Monroe/I Wanna Be Loved By You
TTITLE6=Lena Horne/Stormy Heater
TTITLE7=Ella Fitzgerald/Sophisticated Ladies
TTITLE8=Dinah Washington/I Want To Be Loved By You
TTITLE9=Dinah Shore/Love That Boy
TTITLE10=Sarah Vaughan/What A Difference A Day Made
TTITLE11=Billie Holiday/The Way You Look Tonight
TTITLE12=Peggy Lee/Fever
TTITLE13=Sarah Vaughan/Fly Me To The Moon
EXTD=YEAR: 2002
EXTT0=
EXTT1=
EXTT2=
EXTT3=
EXTT4=
EXTT5=
EXTT6=
EXTT7=
EXTT8=
EXTT9=
EXTT10=
EXTT11=
EXTT12=
EXTT13=
PLAYORDER=
